<?xml version="1.0" standalone="no"?>
<!DOCTYPE svg PUBLIC "-//W3C//DTD SVG 20010904//EN"
 "http://www.w3.org/TR/2001/REC-SVG-20010904/DTD/svg10.dtd">
<svg version="1.0" xmlns="http://www.w3.org/2000/svg"
 width="24" height="24" viewBox="0 0 24 24"
 preserveAspectRatio="xMidYMid meet">

<g transform="translate(0.000000,420.000000) scale(0.100000,-0.100000)"
fill="#000000" stroke="none">
<path d="M540 3600 c0 -5 5 -10 10 -10 6 0 10 -9 10 -20 0 -13 -11 -25 -32
-34 l-33 -14 58 -1 c32 -1 57 3 57 9 0 6 -4 10 -10 10 -5 0 -10 6 -10 14 0 19
29 48 40 41 5 -3 11 -1 15 5 4 6 -14 10 -49 10 -31 0 -56 -4 -56 -10z"/>
<path d="M700 3591 c-5 -11 -14 -31 -20 -45 -8 -22 -7 -26 10 -26 13 0 22 9
26 25 7 28 24 24 24 -6 0 -14 7 -19 28 -19 24 0 30 6 44 45 14 36 14 45 4 45
-8 0 -21 -10 -29 -22 l-16 -23 -7 23 c-8 28 -49 30 -64 3z"/>
<path d="M851 3568 c-21 -49 -8 -64 21 -28 l19 23 22 -22 c24 -22 47 -28 47
-12 0 5 -7 15 -16 22 -14 12 -13 16 12 36 32 26 12 33 -22 8 -25 -19 -48 -19
-40 0 3 9 0 15 -10 15 -8 0 -23 -19 -33 -42z"/>
<path d="M1050 3591 c-24 -46 -8 -71 47 -71 27 0 83 49 83 74 0 29 -26 17 -43
-20 -13 -27 -22 -35 -40 -32 -23 4 -24 8 -12 46 8 28 -20 31 -35 3z"/>
<path d="M1241 3598 c15 -10 15 -15 3 -45 -13 -31 -13 -33 5 -33 13 0 23 11
31 34 7 23 20 38 38 45 23 8 18 9 -33 10 -47 0 -56 -3 -44 -11z"/>
<path d="M1380 3591 c-5 -11 -14 -31 -20 -45 -8 -22 -7 -26 8 -26 14 0 52 62
52 85 0 14 -31 3 -40 -14z"/>
<path d="M1470 3596 c0 -8 -12 -17 -27 -22 -22 -5 -24 -8 -10 -11 13 -3 16
-10 11 -25 -12 -40 29 -14 47 30 18 41 18 42 -1 42 -11 0 -20 -6 -20 -14z"/>
<path d="M1560 3565 l-44 -45 46 0 c26 0 50 5 53 10 3 6 -3 10 -14 10 -26 0
-26 5 -2 32 l20 20 8 -33 c11 -39 33 -51 33 -17 -1 81 -35 89 -100 23z"/>
<path d="M1755 3600 c-3 -6 4 -10 16 -10 20 0 18 -4 -17 -35 l-39 -34 53 -1
c28 0 52 5 52 10 0 6 -10 10 -22 10 -21 1 -19 4 16 35 l39 35 -46 0 c-25 0
-49 -4 -52 -10z"/>
<path d="M1907 3592 c-50 -55 35 -100 97 -51 29 23 34 54 10 63 -33 13 -91 6
-107 -12z m83 -22 c0 -22 -45 -39 -61 -23 -17 17 2 43 32 43 22 0 29 -5 29
-20z"/>
<path d="M2180 3591 c-5 -11 -14 -31 -20 -45 -9 -26 -9 -26 43 -26 63 0 84 13
93 58 l7 32 -56 0 c-45 0 -58 -4 -67 -19z m65 -16 c-20 -9 -24 -14 -12 -14 28
-1 20 -21 -9 -21 -20 0 -25 4 -20 16 3 9 6 20 6 25 0 5 15 9 33 9 l32 -1 -30
-14z"/>
<path d="M2350 3591 c-25 -47 -8 -71 50 -71 30 0 80 48 80 76 0 27 -26 14 -43
-22 -13 -27 -22 -35 -40 -32 -23 4 -24 8 -12 46 8 28 -20 31 -35 3z"/>
<path d="M2537 3603 c-3 -5 -12 -25 -20 -45 -15 -36 -15 -38 4 -38 10 0 19 6
19 14 0 25 16 27 43 6 14 -11 33 -20 42 -20 14 0 13 3 -6 18 l-22 19 26 7 c18
4 27 13 27 26 0 18 -7 20 -54 20 -30 0 -57 -3 -59 -7z m81 -18 c-11 -9 -58
-14 -58 -6 0 11 30 19 48 13 7 -2 12 -6 10 -7z"/>
<path d="M2710 3600 c0 -5 3 -9 8 -7 10 3 13 -14 6 -35 -3 -10 -14 -18 -25
-18 -10 0 -19 -4 -19 -10 0 -5 23 -10 50 -10 46 0 67 13 38 22 -10 4 -10 10 0
32 6 15 16 25 20 22 4 -2 14 -1 22 5 10 6 -4 9 -42 9 -32 0 -58 -4 -58 -10z"/>
<path d="M2887 3572 c-20 -21 -37 -41 -37 -45 0 -4 18 -7 40 -7 22 0 40 5 40
10 0 6 -7 10 -15 10 -13 0 -13 3 1 26 19 28 34 18 34 -23 0 -14 6 -23 15 -23
16 0 19 28 9 68 -9 34 -45 27 -87 -16z"/>
<path d="M3050 3591 c-5 -11 -14 -31 -20 -45 -9 -26 -9 -26 40 -26 28 0 50 5
50 10 0 6 -12 10 -26 10 -27 0 -28 6 -9 53 10 24 -21 23 -35 -2z"/>
<path d="M3304 3589 c-13 -15 -16 -24 -8 -36 14 -22 60 -37 82 -27 14 6 11 8
-13 13 -21 4 -31 13 -33 29 -3 19 1 22 30 22 18 0 40 5 48 10 11 7 1 10 -36
10 -39 0 -55 -5 -70 -21z"/>
<path d="M3450 3568 l-19 -43 41 -3 c22 -2 46 2 51 7 8 8 3 11 -17 11 -29 0
-30 6 -11 53 5 12 2 17 -9 17 -10 0 -25 -17 -36 -42z"/>
<path d="M3610 3591 c-23 -44 -8 -71 40 -71 44 0 90 41 90 80 0 24 -28 7 -43
-26 -13 -27 -22 -35 -40 -32 -23 4 -24 8 -12 46 8 28 -20 31 -35 3z"/>
<path d="M3770 3568 l-19 -43 56 -3 c64 -3 79 6 89 56 l7 32 -57 0 -57 0 -19
-42z m75 7 c-27 -12 -28 -13 -7 -14 31 -1 17 -21 -15 -21 -19 0 -24 4 -19 16
3 9 6 20 6 25 0 5 15 9 33 9 l32 -1 -30 -14z"/>
<path d="M1333 3493 c472 -2 1242 -2 1710 0 469 1 83 2 -858 2 -940 0 -1324
-1 -852 -2z"/>
<path d="M1725 3445 c-390 -73 -688 -271 -859 -571 -65 -114 -120 -261 -141
-379 -25 -136 -16 -347 18 -460 22 -74 81 -205 92 -205 2 0 -5 26 -16 58 -68
198 -64 468 11 673 127 349 420 599 800 681 114 25 315 29 430 9 173 -31 344
-102 482 -201 535 -383 610 -1088 163 -1536 -135 -135 -301 -229 -429 -241
-49 -4 -80 -1 -133 15 -38 12 -102 28 -142 37 -85 18 -115 32 -200 97 -35 26
-69 48 -75 48 -27 -1 -40 -22 -37 -60 1 -20 70 -92 108 -115 34 -20 63 -63 63
-93 0 -17 -10 -23 -54 -32 -113 -23 -256 -11 -335 29 -20 11 -97 74 -171 140
-172 155 -274 209 -310 166 -19 -23 -8 -38 61 -79 43 -26 120 -95 229 -206
203 -205 256 -236 500 -286 114 -24 334 -24 445 0 250 54 488 184 662 363 183
187 288 379 364 663 20 72 23 111 23 255 1 175 -7 223 -60 382 -97 290 -344
564 -639 710 -138 69 -193 89 -320 119 -141 33 -403 42 -530 19z"/>
<path d="M1945 2947 c-29 -14 -63 -41 -80 -63 -27 -35 -30 -47 -30 -110 0 -58
4 -76 25 -106 69 -101 208 -120 294 -40 62 58 81 144 47 217 -50 107 -156 150
-256 102z"/>
<path d="M1294 2810 c-51 -21 -71 -97 -36 -140 26 -32 90 -38 125 -10 36 29
39 96 5 128 -28 25 -66 34 -94 22z"/>
<path d="M2430 2563 c-38 -26 -49 -45 -50 -84 0 -67 69 -114 131 -89 39 16 59
46 59 88 0 44 -14 68 -50 87 -38 19 -60 19 -90 -2z"/>
<path d="M1458 2553 c-21 -5 -33 -44 -24 -76 24 -81 56 -215 56 -231 0 -39
-151 -242 -214 -288 -84 -61 -135 -34 -338 184 -30 32 -54 33 -72 5 -12 -19
-12 -21 68 -138 78 -113 144 -262 170 -381 4 -18 21 -37 49 -54 50 -32 85 -61
152 -124 l50 -47 0 141 c0 105 5 159 19 211 27 102 122 343 131 333 10 -9 12
-136 4 -248 -10 -144 -37 -290 -74 -405 l-25 -80 40 -36 c65 -59 103 -73 215
-76 l100 -4 -52 48 c-28 26 -61 64 -72 83 -28 47 -28 118 -1 153 36 46 120 56
162 20 19 -17 38 -10 38 13 0 24 65 145 114 212 51 69 145 174 190 212 l29 25
-7 -137 c-8 -165 -39 -301 -91 -395 -20 -36 -35 -66 -33 -67 2 -1 40 -14 84
-29 146 -48 175 -40 338 99 66 57 162 132 213 166 51 35 95 71 99 82 4 12 -1
26 -15 39 l-21 21 -57 -28 c-106 -52 -183 -76 -243 -76 -106 0 -138 50 -169
267 l-20 136 50 44 c52 48 64 88 34 113 -27 22 -76 2 -208 -87 -194 -129 -291
-160 -360 -114 -66 43 -128 166 -183 364 -40 146 -59 168 -126 150z"/>
<path d="M922 2410 c-27 -26 -28 -42 -2 -65 27 -24 68 -13 76 22 5 20 2 31
-16 45 -28 23 -31 23 -58 -2z"/>
<path d="M1804 2374 c-63 -33 -85 -125 -43 -178 74 -94 205 -57 217 62 4 46 2
53 -29 86 -41 43 -96 55 -145 30z"/>
<path d="M1142 2144 c-54 -37 -46 -110 14 -139 27 -13 38 -13 56 -4 39 20 58
41 58 65 0 74 -72 117 -128 78z"/>
<path d="M2736 2013 c-37 -20 -50 -56 -31 -92 24 -47 78 -56 113 -18 56 60 -9
148 -82 110z"/>
<path d="M2408 1920 c-27 -27 -30 -36 -25 -72 7 -50 32 -77 80 -85 32 -5 41
-1 72 30 39 39 43 65 18 107 -33 57 -99 66 -145 20z"/>
<path d="M920 1365 c-17 -21 -5 -34 59 -62 60 -26 208 -100 281 -140 l45 -25
-40 37 c-122 114 -259 205 -307 205 -14 0 -31 -7 -38 -15z"/>
<path d="M926 1241 c-7 -11 11 -27 49 -41 40 -16 248 -70 252 -66 2 1 -53 28
-121 59 -117 54 -168 68 -180 48z"/>
<path d="M727 684 c-4 -4 -7 -20 -7 -36 0 -22 5 -28 21 -28 17 0 20 5 17 32
-3 31 -17 45 -31 32z"/>
<path d="M774 666 c-7 -30 11 -57 32 -49 21 8 14 67 -8 71 -12 2 -19 -5 -24
-22z"/>
<path d="M855 677 c-3 -7 -5 -47 -3 -88 3 -62 6 -74 21 -77 16 -3 18 4 15 84
-2 59 -7 89 -15 92 -7 2 -15 -3 -18 -11z"/>
<path d="M1065 677 c-3 -7 -5 -47 -3 -88 2 -58 6 -74 18 -74 11 0 16 13 18 43
3 34 7 43 20 40 13 -2 18 -16 20 -58 3 -54 22 -90 48 -90 21 0 28 22 11 35 -9
6 -19 34 -23 66 -7 58 -26 89 -55 89 -10 0 -19 9 -21 22 -4 25 -26 36 -33 15z"/>
<path d="M1215 677 c-3 -7 -5 -47 -3 -88 2 -58 6 -74 18 -74 12 0 15 16 15 84
0 59 -4 86 -12 88 -7 3 -15 -2 -18 -10z"/>
<path d="M2312 674 c2 -11 11 -20 22 -22 13 -3 17 1 14 14 -2 11 -11 20 -22
22 -13 3 -17 -1 -14 -14z"/>
<path d="M3317 684 c-4 -4 -7 -33 -7 -64 0 -65 -18 -92 -45 -70 -22 19 -18 39
10 50 29 11 32 25 8 34 -24 10 -67 -25 -71 -57 -6 -53 74 -90 112 -52 19 19
29 68 24 120 -3 37 -16 53 -31 39z"/>
<path d="M3375 677 c-3 -7 -5 -47 -3 -88 3 -62 6 -74 21 -77 16 -3 18 4 15 84
-2 59 -7 89 -15 92 -7 2 -15 -3 -18 -11z"/>
<path d="M3607 684 c-4 -4 -7 -20 -7 -36 0 -22 5 -28 21 -28 17 0 20 5 17 32
-3 31 -17 45 -31 32z"/>
<path d="M3654 666 c-7 -30 11 -57 32 -49 21 8 14 67 -8 71 -12 2 -19 -5 -24
-22z"/>
<path d="M939 619 c-26 -26 -24 -102 4 -107 14 -3 17 4 17 43 0 39 3 46 18 43
13 -2 18 -15 20 -58 3 -58 22 -90 54 -90 21 0 24 25 4 37 -7 4 -15 31 -18 61
-8 83 -54 116 -99 71z"/>
<path d="M1306 619 c-15 -12 -26 -30 -26 -45 0 -28 32 -64 58 -64 32 0 34 13
6 35 -31 24 -28 55 5 55 22 0 31 -18 31 -62 0 -23 4 -29 18 -26 26 6 19 87 -9
111 -28 22 -50 22 -83 -4z"/>
<path d="M1460 620 c-14 -14 -20 -33 -20 -65 0 -38 3 -45 20 -45 17 0 20 7 20
46 0 38 3 45 18 42 13 -2 18 -15 20 -58 3 -54 22 -90 47 -90 7 0 15 -13 18
-29 8 -38 32 -61 66 -61 55 0 61 19 63 199 0 48 -25 81 -62 81 -27 0 -70 -39
-70 -64 0 -32 28 -66 55 -66 35 0 40 18 10 32 -18 8 -25 18 -23 32 4 24 37 34
49 14 13 -20 11 -88 -3 -92 -7 -2 -27 -7 -44 -13 -45 -15 -64 3 -64 59 0 80
-55 123 -100 78z m220 -174 c0 -28 -12 -46 -31 -46 -28 0 -36 30 -14 46 24 18
45 18 45 0z"/>
<path d="M1766 619 c-15 -12 -26 -30 -26 -45 0 -29 32 -64 59 -64 31 0 35 19
6 32 -30 14 -31 51 -1 56 24 5 36 -14 36 -56 0 -27 4 -33 18 -30 26 6 20 87
-9 111 -28 22 -50 22 -83 -4z"/>
<path d="M1919 619 c-26 -26 -24 -102 4 -107 14 -3 17 4 17 43 0 39 3 46 18
43 13 -2 18 -15 20 -58 3 -58 22 -90 54 -90 22 0 24 28 3 36 -10 4 -15 20 -15
44 0 94 -51 139 -101 89z"/>
<path d="M2076 619 c-30 -23 -33 -49 -10 -84 21 -32 88 -36 104 -6 18 34 12
78 -12 95 -30 21 -50 20 -82 -5z m68 -36 c9 -21 -16 -46 -37 -37 -17 6 -23 35
-10 47 12 13 41 7 47 -10z"/>
<path d="M2314 627 c-3 -8 -4 -36 -2 -63 2 -38 7 -50 21 -52 16 -3 18 3 15 59
-3 60 -21 90 -34 56z"/>
<path d="M2409 619 c-26 -26 -24 -102 4 -107 14 -3 17 4 17 43 0 39 3 46 18
43 13 -2 18 -17 22 -66 5 -64 17 -82 53 -82 23 0 22 22 -3 43 -15 12 -19 27
-18 61 4 74 -48 110 -93 65z"/>
<path d="M2556 619 c-14 -11 -26 -29 -26 -40 0 -32 30 -69 56 -69 34 0 39 18
9 32 -30 14 -31 51 -1 56 24 5 36 -14 36 -56 0 -27 4 -33 18 -30 26 6 20 87
-9 111 -28 22 -50 22 -83 -4z"/>
<path d="M2704 615 c-21 -32 -15 -99 9 -103 14 -3 17 4 17 43 0 39 3 46 18 43
12 -2 18 -15 20 -46 3 -34 7 -43 20 -40 12 2 18 15 20 46 5 62 26 48 30 -19 3
-57 22 -89 54 -89 22 0 24 28 3 36 -11 4 -15 21 -15 58 -1 75 -16 90 -96 92
-58 2 -67 -1 -80 -21z"/>
<path d="M2936 619 c-29 -23 -33 -54 -11 -87 13 -18 24 -21 68 -19 l52 3 -2
44 c-4 73 -54 101 -107 59z m68 -35 c9 -23 7 -54 -3 -54 -20 0 -54 37 -48 53
8 22 43 22 51 1z"/>
<path d="M3089 619 c-15 -15 -19 -30 -17 -62 4 -59 32 -58 36 1 3 34 7 43 20
40 13 -2 18 -16 20 -58 3 -58 22 -90 54 -90 22 0 24 26 3 38 -10 5 -17 26 -18
60 -5 82 -52 117 -98 71z"/>
<path d="M3466 619 c-15 -12 -26 -30 -26 -45 0 -28 32 -64 58 -64 32 0 34 13
6 35 -31 24 -28 55 5 55 22 0 31 -18 31 -62 0 -23 4 -29 18 -26 26 6 19 87 -9
111 -28 22 -50 22 -83 -4z"/>
</g>
</svg>
